<svg aria-hidden="true" style="position: absolute; width: 0; height: 0; overflow: hidden;" version="1.1" xmlns="http://www.w3.org/2000/svg" xmlns:xlink="http://www.w3.org/1999/xlink">
    <defs>
        <symbol id="adeco-logo-ad" viewBox="0 0 160 40">
            <path d="M21.2147 16H11.8472L0 51H23.6943L22.0412 44.3333H9.36753L16.8065 23.7778L25.623 51H33.3374C33.3374 51 22.5923 51 41.0518 51C59.5114 51 59.7869 16 41.0518 16C22.3168 16 23.4188 16 23.4188 16L26.174 22.6667L41.0518 22.6667C49.5928 22.6667 49.5928 44.3333 41.0518 44.3333H31.6843L21.2147 16Z" fill="url(#paint0_linear_31_21)"/>
            <path d="M21.2147 16H11.8472L0 51H23.6943L22.0412 44.3333H9.36753L16.8065 23.7778L25.623 51H33.3374C33.3374 51 22.5923 51 41.0518 51C59.5114 51 59.7869 16 41.0518 16C22.3168 16 23.4188 16 23.4188 16L26.174 22.6667L41.0518 22.6667C49.5928 22.6667 49.5928 44.3333 41.0518 44.3333H31.6843L21.2147 16Z" fill="#2D61E6"/>
            <path d="M58.0341 51V16.0909H81.5568V22.1761H65.4148V30.4943H80.3466V36.5795H65.4148V44.9148H81.625V51H58.0341ZM118.226 28.3125H110.76C110.624 27.3466 110.345 26.4886 109.925 25.7386C109.504 24.9773 108.964 24.3295 108.305 23.7955C107.646 23.2614 106.885 22.8523 106.021 22.5682C105.169 22.2841 104.243 22.142 103.243 22.142C101.436 22.142 99.8622 22.5909 98.5213 23.4886C97.1804 24.375 96.1406 25.6705 95.402 27.375C94.6634 29.0682 94.294 31.125 94.294 33.5455C94.294 36.0341 94.6634 38.125 95.402 39.8182C96.152 41.5114 97.1974 42.7898 98.5384 43.6534C99.8793 44.517 101.43 44.9489 103.192 44.9489C104.18 44.9489 105.095 44.8182 105.936 44.5568C106.788 44.2955 107.544 43.9148 108.203 43.4148C108.862 42.9034 109.408 42.2841 109.839 41.5568C110.283 40.8295 110.589 40 110.76 39.0682L118.226 39.1023C118.033 40.7045 117.55 42.25 116.777 43.7386C116.016 45.2159 114.987 46.5398 113.692 47.7102C112.408 48.8693 110.874 49.7898 109.089 50.4716C107.317 51.142 105.311 51.4773 103.072 51.4773C99.9588 51.4773 97.1747 50.7727 94.7202 49.3636C92.277 47.9545 90.3452 45.9148 88.9247 43.2443C87.5156 40.5739 86.8111 37.3409 86.8111 33.5455C86.8111 29.7386 87.527 26.5 88.9588 23.8295C90.3906 21.1591 92.3338 19.125 94.7884 17.7273C97.2429 16.3182 100.004 15.6136 103.072 15.6136C105.095 15.6136 106.97 15.8977 108.697 16.4659C110.436 17.0341 111.976 17.8636 113.317 18.9545C114.658 20.0341 115.749 21.358 116.589 22.9261C117.442 24.4943 117.987 26.2898 118.226 28.3125ZM155.598 33.5455C155.598 37.3523 154.876 40.5909 153.433 43.2614C152.001 45.9318 150.047 47.9716 147.57 49.3807C145.104 50.7784 142.331 51.4773 139.251 51.4773C136.149 51.4773 133.365 50.7727 130.899 49.3636C128.433 47.9545 126.484 45.9148 125.053 43.2443C123.621 40.5739 122.905 37.3409 122.905 33.5455C122.905 29.7386 123.621 26.5 125.053 23.8295C126.484 21.1591 128.433 19.125 130.899 17.7273C133.365 16.3182 136.149 15.6136 139.251 15.6136C142.331 15.6136 145.104 16.3182 147.57 17.7273C150.047 19.125 152.001 21.1591 153.433 23.8295C154.876 26.5 155.598 29.7386 155.598 33.5455ZM148.115 33.5455C148.115 31.0795 147.746 29 147.007 27.3068C146.28 25.6136 145.251 24.3295 143.922 23.4545C142.592 22.5795 141.036 22.142 139.251 22.142C137.467 22.142 135.911 22.5795 134.581 23.4545C133.251 24.3295 132.217 25.6136 131.479 27.3068C130.751 29 130.388 31.0795 130.388 33.5455C130.388 36.0114 130.751 38.0909 131.479 39.7841C132.217 41.4773 133.251 42.7614 134.581 43.6364C135.911 44.5114 137.467 44.9489 139.251 44.9489C141.036 44.9489 142.592 44.5114 143.922 43.6364C145.251 42.7614 146.28 41.4773 147.007 39.7841C147.746 38.0909 148.115 36.0114 148.115 33.5455Z" fill="url(#paint1_linear_31_21)"/>
            <path d="M58.0341 51V16.0909H81.5568V22.1761H65.4148V30.4943H80.3466V36.5795H65.4148V44.9148H81.625V51H58.0341ZM118.226 28.3125H110.76C110.624 27.3466 110.345 26.4886 109.925 25.7386C109.504 24.9773 108.964 24.3295 108.305 23.7955C107.646 23.2614 106.885 22.8523 106.021 22.5682C105.169 22.2841 104.243 22.142 103.243 22.142C101.436 22.142 99.8622 22.5909 98.5213 23.4886C97.1804 24.375 96.1406 25.6705 95.402 27.375C94.6634 29.0682 94.294 31.125 94.294 33.5455C94.294 36.0341 94.6634 38.125 95.402 39.8182C96.152 41.5114 97.1974 42.7898 98.5384 43.6534C99.8793 44.517 101.43 44.9489 103.192 44.9489C104.18 44.9489 105.095 44.8182 105.936 44.5568C106.788 44.2955 107.544 43.9148 108.203 43.4148C108.862 42.9034 109.408 42.2841 109.839 41.5568C110.283 40.8295 110.589 40 110.76 39.0682L118.226 39.1023C118.033 40.7045 117.55 42.25 116.777 43.7386C116.016 45.2159 114.987 46.5398 113.692 47.7102C112.408 48.8693 110.874 49.7898 109.089 50.4716C107.317 51.142 105.311 51.4773 103.072 51.4773C99.9588 51.4773 97.1747 50.7727 94.7202 49.3636C92.277 47.9545 90.3452 45.9148 88.9247 43.2443C87.5156 40.5739 86.8111 37.3409 86.8111 33.5455C86.8111 29.7386 87.527 26.5 88.9588 23.8295C90.3906 21.1591 92.3338 19.125 94.7884 17.7273C97.2429 16.3182 100.004 15.6136 103.072 15.6136C105.095 15.6136 106.97 15.8977 108.697 16.4659C110.436 17.0341 111.976 17.8636 113.317 18.9545C114.658 20.0341 115.749 21.358 116.589 22.9261C117.442 24.4943 117.987 26.2898 118.226 28.3125ZM155.598 33.5455C155.598 37.3523 154.876 40.5909 153.433 43.2614C152.001 45.9318 150.047 47.9716 147.57 49.3807C145.104 50.7784 142.331 51.4773 139.251 51.4773C136.149 51.4773 133.365 50.7727 130.899 49.3636C128.433 47.9545 126.484 45.9148 125.053 43.2443C123.621 40.5739 122.905 37.3409 122.905 33.5455C122.905 29.7386 123.621 26.5 125.053 23.8295C126.484 21.1591 128.433 19.125 130.899 17.7273C133.365 16.3182 136.149 15.6136 139.251 15.6136C142.331 15.6136 145.104 16.3182 147.57 17.7273C150.047 19.125 152.001 21.1591 153.433 23.8295C154.876 26.5 155.598 29.7386 155.598 33.5455ZM148.115 33.5455C148.115 31.0795 147.746 29 147.007 27.3068C146.28 25.6136 145.251 24.3295 143.922 23.4545C142.592 22.5795 141.036 22.142 139.251 22.142C137.467 22.142 135.911 22.5795 134.581 23.4545C133.251 24.3295 132.217 25.6136 131.479 27.3068C130.751 29 130.388 31.0795 130.388 33.5455C130.388 36.0114 130.751 38.0909 131.479 39.7841C132.217 41.4773 133.251 42.7614 134.581 43.6364C135.911 44.5114 137.467 44.9489 139.251 44.9489C141.036 44.9489 142.592 44.5114 143.922 43.6364C145.251 42.7614 146.28 41.4773 147.007 39.7841C147.746 38.0909 148.115 36.0114 148.115 33.5455Z" fill="#2D61E6"/>
            <defs>
            <linearGradient id="paint0_linear_31_21" x1="27.5" y1="16" x2="27.5" y2="51" gradientUnits="userSpaceOnUse">
            <stop stop-color="#142F98"/>
            <stop offset="0.637078" stop-color="#142F98"/>
            <stop offset="0.638021" stop-color="#DE8518"/>
            <stop offset="1" stop-color="#DE8518"/>
            </linearGradient>
            <linearGradient id="paint1_linear_31_21" x1="107.5" y1="5" x2="107.5" y2="52" gradientUnits="userSpaceOnUse">
            <stop stop-color="#142F98"/>
            <stop offset="0.637078" stop-color="#142F98"/>
            <stop offset="0.638021" stop-color="#DE8518"/>
            <stop offset="1" stop-color="#DE8518"/>
            </linearGradient>
            </defs>
        </symbol>
        <symbol id="down-arrow" viewBox="0 0 32 8">
            <path d="M26 2L14 14L2 2" stroke="#121212" fill="transparent" stroke-width="4" stroke-linecap="round" stroke-linejoin="round"/>
        </symbol>
        <symbol id="phone" viewBox="0 0 60 60" fill="none" xmlns="http://www.w3.org/2000/svg">
            <path d="M58 47.724C58 48.732 57.7757 49.768 57.2989 50.776C56.8222 51.784 56.2053 52.736 55.3921 53.632C54.018 55.144 52.5038 56.236 50.7932 56.936C49.1107 57.636 47.2879 58 45.325 58C42.4647 58 39.4081 57.328 36.1833 55.956C32.9584 54.584 29.7336 52.736 26.5368 50.412C23.312 48.06 20.2554 45.456 17.339 42.572C14.4507 39.66 11.8428 36.608 9.51527 33.416C7.21582 30.224 5.36505 27.032 4.01903 23.868C2.67301 20.676 2 17.624 2 14.712C2 12.808 2.3365 10.988 3.00951 9.308C3.68252 7.6 4.74812 6.032 6.23435 4.632C8.02904 2.868 9.99199 2 12.0671 2C12.8523 2 13.6375 2.168 14.3385 2.504C15.0676 2.84 15.7126 3.344 16.2173 4.072L22.7231 13.228C23.2278 13.928 23.5924 14.572 23.8448 15.188C24.0971 15.776 24.2374 16.364 24.2374 16.896C24.2374 17.568 24.0411 18.24 23.6485 18.884C23.2839 19.528 22.7511 20.2 22.0781 20.872L19.9469 23.084C19.6385 23.392 19.4982 23.756 19.4982 24.204C19.4982 24.428 19.5263 24.624 19.5824 24.848C19.6665 25.072 19.7506 25.24 19.8067 25.408C20.3115 26.332 21.1808 27.536 22.4146 28.992C23.6765 30.448 25.0225 31.932 26.4807 33.416C27.995 34.9 29.4532 36.272 30.9394 37.532C32.3976 38.764 33.6034 39.604 34.5568 40.108C34.697 40.164 34.8653 40.248 35.0616 40.332C35.2859 40.416 35.5103 40.444 35.7626 40.444C36.2394 40.444 36.6039 40.276 36.9124 39.968L39.0436 37.868C39.7446 37.168 40.4176 36.636 41.0626 36.3C41.7076 35.908 42.3525 35.712 43.0536 35.712C43.5864 35.712 44.1472 35.824 44.7641 36.076C45.3811 36.328 46.026 36.692 46.7271 37.168L56.009 43.748C56.7381 44.252 57.2429 44.84 57.5513 45.54C57.8317 46.24 58 46.94 58 47.724Z" stroke="#FAFAFA" stroke-width="4" stroke-miterlimit="10"/>
        </symbol>
        <symbol id="bold-phone" fill="none" viewBox="0 0 40 40">
            <g id="&#240;&#159;&#166;&#134; icon &#34;call&#34;">
                <path id="Vector" d="M37.9529 31.4953C37.9529 32.1324 37.8111 32.7872 37.5097 33.4244C37.2084 34.0615 36.8185 34.6632 36.3045 35.2296C35.436 36.1853 34.4788 36.8755 33.3976 37.3179C32.3341 37.7604 31.182 37.9905 29.9413 37.9905C28.1334 37.9905 26.2014 37.5657 24.163 36.6985C22.1247 35.8313 20.0864 34.6632 18.0658 33.1943C16.0274 31.7076 14.0954 30.0617 12.2521 28.2388C10.4264 26.3982 8.77801 24.4691 7.30686 22.4515C5.85343 20.4339 4.6836 18.4164 3.83282 16.4165C2.98203 14.3989 2.55664 12.4698 2.55664 10.6292C2.55664 9.42571 2.76934 8.27533 3.19473 7.21345C3.62012 6.13386 4.29366 5.14277 5.23307 4.25786C6.36745 3.14288 7.60818 2.59424 8.91981 2.59424C9.4161 2.59424 9.91239 2.70043 10.3555 2.9128C10.8164 3.12518 11.224 3.44375 11.5431 3.9039L15.6552 9.69118C15.9742 10.1336 16.2047 10.5407 16.3642 10.93C16.5237 11.3017 16.6123 11.6734 16.6123 12.0096C16.6123 12.4344 16.4883 12.8591 16.2401 13.2662C16.0097 13.6733 15.6729 14.098 15.2475 14.5228L13.9004 15.9209C13.7055 16.1156 13.6169 16.3457 13.6169 16.6288C13.6169 16.7704 13.6346 16.8943 13.67 17.0359C13.7232 17.1775 13.7764 17.2837 13.8118 17.3899C14.1309 17.9739 14.6803 18.7349 15.4602 19.6552C16.2578 20.5755 17.1086 21.5135 18.0303 22.4515C18.9874 23.3895 19.9091 24.2567 20.8485 25.0531C21.7702 25.8319 22.5324 26.3628 23.135 26.6814C23.2236 26.7168 23.33 26.7699 23.4541 26.823C23.5959 26.876 23.7377 26.8937 23.8972 26.8937C24.1985 26.8937 24.4289 26.7876 24.6239 26.5929L25.971 25.2655C26.4141 24.8231 26.8395 24.4868 27.2471 24.2744C27.6548 24.0267 28.0625 23.9028 28.5056 23.9028C28.8424 23.9028 29.1969 23.9736 29.5868 24.1328C29.9768 24.2921 30.3844 24.5222 30.8275 24.8231L36.6944 28.9821C37.1553 29.3007 37.4743 29.6723 37.6693 30.1148C37.8465 30.5573 37.9529 30.9997 37.9529 31.4953Z" stroke="#FAFAFA" stroke-width="4" stroke-miterlimit="10"/>
            </g>
        </symbol>
        <symbol id="email" fill="none" viewBox="0 0 31 18">
            <g clip-path="url(#clip0_76_30)">
            <path d="M1.00066 5.00098C1.00145 2.99421 1.2767 2.14022 1.70889 1.70798C2.14092 1.27589 2.99441 1.00069 5.00071 1.00059C8.99948 1.00038 22.0003 0.999914 26.0003 1.00059C28.0076 1.00092 28.8614 1.27613 29.2934 1.70819C29.7254 2.14019 30.0005 2.99381 30.0005 5.00059C30.0005 6.52805 30.0005 7.47213 30.0005 8.27855C30.0004 9.5835 30.0004 10.528 30.0005 13.0006C30.0006 15.0082 29.7255 15.8618 29.2936 16.2937C28.8616 16.7256 28.0079 17.0006 26.0005 17.0006H5.0005C2.99332 17.0006 2.13966 16.7256 1.70773 16.2937C1.27583 15.8618 1.0007 15.0081 1.00075 13.0006C1.00078 11.4101 1.00052 10.452 1.0003 9.62371C0.999968 8.368 0.999713 7.41077 1.00066 5.00098Z" stroke="white" stroke-width="2" stroke-linejoin="round"/>
            <path d="M2.00195 2.00146L16.002 9.00146" stroke="white" stroke-width="2" stroke-linecap="round"/>
            <path d="M29.002 2.00146L16.002 9.00147" stroke="white" stroke-width="2" stroke-linecap="round"/>
            </g>
            <defs>
            <clipPath id="clip0_76_30">
            <rect width="31" height="18" fill="white"/>
            </clipPath>
            </defs>
        </symbol>
        <symbol id="location" fill="none" viewBox="0 0 24 40" >
            <g clip-path="url(#clip0_76_38)">
            <path d="M23 12C23 13.4589 22.4365 15.5458 21.4735 18.0369C20.5221 20.498 19.2266 23.2415 17.8561 25.9745C16.9445 27.7925 16.0089 29.5879 15.1238 31.2866C14.6764 32.1452 14.2418 32.9791 13.8298 33.7786C13.1273 35.1419 12.4855 36.4141 11.9677 37.5242C11.3955 36.3445 10.7046 35.0008 9.9575 33.5643C9.71109 33.0905 9.45809 32.6057 9.20039 32.1119C8.15481 30.1084 7.03198 27.9568 5.95846 25.7911C4.6201 23.0912 3.37151 20.3954 2.45919 17.9745C1.53665 15.5266 1 13.4658 1 12C1 5.92487 5.92487 1 12 1C18.0751 1 23 5.92487 23 12Z" stroke="white" stroke-width="2"/>
            </g>
            <defs>
            <clipPath id="clip0_76_38">
            <rect width="24" height="40" fill="white"/>
            </clipPath>
            </defs>
        </symbol>
    </defs>
</svg>